<svg xmlns="http://www.w3.org/2000/svg" version="1.1" xmlns:xlink="http://www.w3.org/1999/xlink" xmlns:svgjs="http://svgjs.dev/svgjs" width="555px" height="629px"><svg width="555px" height="629px" viewBox="0 0 555 629" version="1.1" xmlns="http://www.w3.org/2000/svg" xmlns:xlink="http://www.w3.org/1999/xlink">
    <!-- Generator: Sketch 43.2 (39069) - http://www.bohemiancoding.com/sketch -->
    <title>Group 2</title>
    <desc>Created with Sketch.</desc>
    <defs></defs>
    <g id="SvgjsG1103" stroke="none" stroke-width="1" fill="none" fill-rule="evenodd">
        <g id="SvgjsG1102" transform="translate(-236.000000, -245.000000)" fill-rule="nonzero" fill="#ED3E2F">
            <g id="SvgjsG1101" transform="translate(236.014870, 243.628253)">
                <path d="M501.064743,123.303939 L53.6855082,123.303939 L53.6855082,284.14381 C57.9554448,405.50655 143.415652,515.920347 277.427091,571.819224 C411.352086,515.814411 496.795359,405.383746 501.064743,284.143427 L501.064743,123.303939 Z M287.210347,625.883839 L277.453454,629.705143 L267.69307,625.892803 C108.893183,563.866642 4.9549643,432.727888 0.0151659189,285.510966 L0,1.79088459 L554.750251,1.79088459 L554.750251,285.059345 C549.795972,432.591571 445.892441,563.735732 287.210347,625.883839 Z M284.735236,493.215746 L281.055181,423.123035 C280.946819,420.788247 281.909896,418.530519 283.674068,416.983611 C285.438241,415.436703 287.813337,414.767368 290.13265,415.163492 L360.380811,427.427686 L350.894447,401.437341 C350.10531,399.317042 350.762955,396.93305 352.530027,395.508293 L429.484066,333.618785 L412.146918,325.578022 C409.72419,324.440984 408.532398,321.690754 409.366432,319.161656 L424.577326,272.703915 L380.253108,282.044195 C377.777267,282.556874 375.280541,281.266095 374.283241,278.957841 L365.696446,258.896544 L331.103929,295.770346 C329.479244,297.472301 326.918812,297.905733 324.818177,296.834404 C322.717542,295.763075 321.580366,293.443855 322.02646,291.140815 L338.709376,205.697557 L311.967643,221.048104 C310.698569,221.78681 309.178018,221.970206 307.767804,221.554652 C306.35759,221.139098 305.183806,220.16175 304.525754,218.855169 L277.375126,165.899842 L250.224498,218.855169 C249.566445,220.16175 248.392661,221.139098 246.982447,221.554652 C245.572234,221.970206 244.051682,221.78681 242.782609,221.048104 L216.040876,205.697557 L232.723792,291.140815 C233.169885,293.443855 232.03271,295.763075 229.932074,296.834404 C227.831439,297.905733 225.271007,297.472301 223.646323,295.770346 L189.053806,258.896544 L180.467011,278.957841 C179.469711,281.266095 176.972984,282.556874 174.497144,282.044195 L130.172926,272.703915 L145.38382,319.161656 C146.217853,321.690754 145.026061,324.440984 142.603334,325.578022 L125.266186,333.618785 L202.220225,395.508293 C203.987296,396.93305 204.644941,399.317042 203.855805,401.437341 L194.369441,427.427686 L264.617602,415.163492 C266.936914,414.767368 269.31201,415.436703 271.076183,416.983611 C272.840356,418.530519 273.803432,420.788247 273.695071,423.123035 L270.015016,493.215746 L284.735236,493.215746 Z" id="SvgjsPath1100"></path>
            </g>
        </g>
    </g>
</svg><style>@media (prefers-color-scheme: light) { :root { filter: none; } }
@media (prefers-color-scheme: dark) { :root { filter: none; } }
</style></svg>