<svg width="1019" height="270" xmlns="http://www.w3.org/2000/svg"><g fill-rule="nonzero" fill="none"><path d="M454.981688 179.082178h16.935753v28.783117h-65.643286v-28.783117h17.134998v-26.806002h-59.681288v26.806002h16.935753v28.783117h-65.643285v-28.783117h17.134997V93.4991506h-17.134997V64.7160337h65.643285v28.7831169h-16.935753v29.5954204h59.681288V93.4991506h-17.134998V64.7160337h65.643286v28.7831169h-16.935753v85.5830274Zm99.959259-117.1555625c41.167998 0 74.364048 33.1960502 74.364048 74.3640485 0 41.167999-33.19605 74.364049-74.364048 74.364049-41.167999 0-74.364049-33.19605-74.364049-74.364049 0-41.1679983 33.19605-74.3640485 74.364049-74.3640485Zm.199244 122.5811335c26.300228 0 46.224643-21.717612 46.224643-48.217085 0-26.499472-19.924415-48.217085-46.224643-48.217085-26.499473 0-46.423888 21.717613-46.423888 48.217085 0 26.499473 19.924415 48.217085 46.423888 48.217085Zm99.760015-91.0085984h-17.134997V64.7160337h74.011539v28.7831169h-25.304007v85.1845384h40.952337v-23.909298h30.775558v53.090904H637.765209v-28.783117h17.134997V93.4991506Zm176.606952.9962208v84.5868066h22.713834v28.783117H777.22079v-28.783117h22.713833V94.4953714h-21.625654v23.3115656h-29.181605V64.7160337h133.187053v53.0909033h-29.181605V94.4953714h-21.625654Zm121.079139-32.768c12.49553 0 23.291771 2.4987397 32.004127 7.4964195 1.391365.7981307 2.729583 1.6599948 4.013086 2.5855931v-7.0933503h28.18538v47.7113113h-28.013997l-1.091799-1.985089C980.30386 97.025467 970.228747 90.112 953.781762 90.112c-14.588795 0-22.070121 5.5684868-22.070121 15.096576 0 8.170843 5.801498 12.495826 20.694994 14.947384l20.924083 3.387718c29.421502 4.830396 45.450622 19.146056 45.450622 43.032097 0 27.270027-20.664723 44.078938-53.443417 44.078938-16.371893 0-29.583607-4.108137-39.603607-11.922933v9.133515h-29.978582v-51.895439h28.121652l1.145861 1.608227c12.652418 17.757779 21.460743 23.496536 39.916188 23.496536 13.3291 0 21.472389-5.489858 21.472389-13.303379 0-7.240824-5.273856-12.51468-18.122097-14.551759l-26.05111-4.375333c-28.197775-4.354069-43.294976-19.337757-43.294976-42.440107 0-27.2217128 21.055804-44.6766696 53.642656-44.6766696Z" fill="#FFF"/><path d="M214.570627 52.6847534H22.98971v68.7229376c1.8285122 51.855326 38.4250809 99.032438 95.812711 122.916659 57.350613-23.929485 93.93993-71.113804 95.768206-122.916823V52.6847534ZM122.991899 267.424836l-4.178188 1.632749-4.179683-1.628919C46.6312566 240.926406 2.12186112 184.894028.0064945 121.991843L0 .76520112h237.560337V121.798876c-2.121568 63.036907-46.616109 119.071595-114.568438 145.62596Zm-1.059916-56.685828-1.575907-29.948898c-.046404-.997598.366014-1.96227 1.121485-2.623225.75547-.660956 1.772556-.946947 2.765754-.777693l30.082323 5.24019-4.062339-11.105038c-.337931-.905952-.056308-1.924573.700403-2.533337l32.953978-26.443871-7.424275-3.435621c-1.037483-.485829-1.547844-1.660934-1.190686-2.741556l6.513751-19.850255-18.980931 3.990873c-1.060227.219055-2.129399-.332463-2.556472-1.318724l-3.677118-8.571701-14.813531 15.755273c-.695737.727203-1.792189.912399-2.691743.454646-.899554-.457753-1.386525-1.448699-1.195495-2.432731l7.144114-36.5078117-11.451595 6.5589129c-.543454.315631-1.194599.3939913-1.798494.2164352-.603895-.1775561-1.106544-.5951527-1.388341-1.1534228l-11.626696-22.6265144-11.626695 22.6265144c-.281798.5582701-.784446.9758667-1.388341 1.1534228-.603895.1775561-1.25504.0991958-1.798495-.2164352l-11.4515943-6.5589129 7.1441142 36.5078117c.1910303.984032-.2959416 1.974978-1.1954953 2.432731-.8995537.457753-1.9960058.272557-2.6917433-.454646l-14.8135309-15.755273-3.6771176 8.571701c-.4270731.986261-1.4962447 1.537779-2.5564722 1.318724l-18.9809309-3.990873 6.5137512 19.850255c.3571576 1.080622-.1532028 2.255727-1.1906857 2.741556l-7.4242755 3.435621 32.9539777 26.443871c.7567119.608764 1.0383348 1.627385.7004033 2.533337l-4.0623394 11.105038 30.0823237-5.24019c.993198-.169254 2.010284.116737 2.765754.777693.755471.660955 1.167889 1.625627 1.121485 2.623225l-1.575908 29.948898h6.30363Z" fill="#ED3E2F"/></g></svg>